<mxfile host="app.diagrams.net" modified="2021-02-03T04:07:15.513Z" agent="5.0 (Windows NT 10.0; WOW64) AppleWebKit/537.36 (KHTML, like Gecko) Chrome/70.0.3538.25 Safari/537.36 Core/1.70.3756.400 QQBrowser/10.5.4039.400" etag="dLmaMlqYHR4kPFbXtCrd" version="14.2.9" type="github">
  <diagram id="C5RBs43oDa-KdzZeNtuy" name="Page-1">
    <mxGraphModel dx="1381" dy="765" grid="1" gridSize="10" guides="1" tooltips="1" connect="1" arrows="1" fold="1" page="1" pageScale="1" pageWidth="827" pageHeight="1169" math="0" shadow="0">
      <root>
        <mxCell id="WIyWlLk6GJQsqaUBKTNV-0" />
        <mxCell id="WIyWlLk6GJQsqaUBKTNV-1" parent="WIyWlLk6GJQsqaUBKTNV-0" />
        <mxCell id="1Vjf7NnYEk90J9PH0Oi4-1" style="edgeStyle=orthogonalEdgeStyle;rounded=0;orthogonalLoop=1;jettySize=auto;html=1;entryX=0.5;entryY=0;entryDx=0;entryDy=0;" edge="1" parent="WIyWlLk6GJQsqaUBKTNV-1" source="1Vjf7NnYEk90J9PH0Oi4-2" target="1Vjf7NnYEk90J9PH0Oi4-6">
          <mxGeometry relative="1" as="geometry" />
        </mxCell>
        <mxCell id="1Vjf7NnYEk90J9PH0Oi4-2" value="开始初始化&lt;br&gt;总数:4196" style="rounded=0;whiteSpace=wrap;html=1;" vertex="1" parent="WIyWlLk6GJQsqaUBKTNV-1">
          <mxGeometry x="370" y="30" width="150" height="60" as="geometry" />
        </mxCell>
        <mxCell id="1Vjf7NnYEk90J9PH0Oi4-4" style="edgeStyle=orthogonalEdgeStyle;rounded=0;orthogonalLoop=1;jettySize=auto;html=1;entryX=0.5;entryY=0;entryDx=0;entryDy=0;" edge="1" parent="WIyWlLk6GJQsqaUBKTNV-1" source="1Vjf7NnYEk90J9PH0Oi4-6" target="1Vjf7NnYEk90J9PH0Oi4-11">
          <mxGeometry relative="1" as="geometry" />
        </mxCell>
        <mxCell id="1Vjf7NnYEk90J9PH0Oi4-5" style="edgeStyle=orthogonalEdgeStyle;rounded=0;orthogonalLoop=1;jettySize=auto;html=1;entryX=0.5;entryY=0;entryDx=0;entryDy=0;" edge="1" parent="WIyWlLk6GJQsqaUBKTNV-1" source="1Vjf7NnYEk90J9PH0Oi4-6" target="1Vjf7NnYEk90J9PH0Oi4-13">
          <mxGeometry relative="1" as="geometry" />
        </mxCell>
        <mxCell id="1Vjf7NnYEk90J9PH0Oi4-6" value="初始化发起网络请求&lt;br&gt;总数:4177" style="rounded=0;whiteSpace=wrap;html=1;" vertex="1" parent="WIyWlLk6GJQsqaUBKTNV-1">
          <mxGeometry x="370" y="130" width="150" height="60" as="geometry" />
        </mxCell>
        <mxCell id="1Vjf7NnYEk90J9PH0Oi4-55" style="edgeStyle=orthogonalEdgeStyle;rounded=0;orthogonalLoop=1;jettySize=auto;html=1;entryX=0.5;entryY=0;entryDx=0;entryDy=0;" edge="1" parent="WIyWlLk6GJQsqaUBKTNV-1" source="1Vjf7NnYEk90J9PH0Oi4-11" target="1Vjf7NnYEk90J9PH0Oi4-20">
          <mxGeometry relative="1" as="geometry" />
        </mxCell>
        <mxCell id="1Vjf7NnYEk90J9PH0Oi4-11" value="初始化成功&lt;br&gt;总数:4151" style="rounded=0;whiteSpace=wrap;html=1;" vertex="1" parent="WIyWlLk6GJQsqaUBKTNV-1">
          <mxGeometry x="370" y="210" width="150" height="60" as="geometry" />
        </mxCell>
        <mxCell id="1Vjf7NnYEk90J9PH0Oi4-57" style="edgeStyle=orthogonalEdgeStyle;rounded=0;orthogonalLoop=1;jettySize=auto;html=1;entryX=0.5;entryY=1;entryDx=0;entryDy=0;" edge="1" parent="WIyWlLk6GJQsqaUBKTNV-1" source="1Vjf7NnYEk90J9PH0Oi4-13" target="1Vjf7NnYEk90J9PH0Oi4-56">
          <mxGeometry relative="1" as="geometry" />
        </mxCell>
        <mxCell id="1Vjf7NnYEk90J9PH0Oi4-13" value="初始化失败&lt;br&gt;总数:283" style="rounded=0;whiteSpace=wrap;html=1;" vertex="1" parent="WIyWlLk6GJQsqaUBKTNV-1">
          <mxGeometry x="206.87" y="210" width="130" height="60" as="geometry" />
        </mxCell>
        <mxCell id="1Vjf7NnYEk90J9PH0Oi4-18" style="edgeStyle=orthogonalEdgeStyle;rounded=0;orthogonalLoop=1;jettySize=auto;html=1;entryX=0.5;entryY=0;entryDx=0;entryDy=0;" edge="1" parent="WIyWlLk6GJQsqaUBKTNV-1" source="1Vjf7NnYEk90J9PH0Oi4-20" target="1Vjf7NnYEk90J9PH0Oi4-24">
          <mxGeometry relative="1" as="geometry" />
        </mxCell>
        <mxCell id="1Vjf7NnYEk90J9PH0Oi4-19" style="edgeStyle=orthogonalEdgeStyle;rounded=0;orthogonalLoop=1;jettySize=auto;html=1;" edge="1" parent="WIyWlLk6GJQsqaUBKTNV-1" source="1Vjf7NnYEk90J9PH0Oi4-20" target="1Vjf7NnYEk90J9PH0Oi4-22">
          <mxGeometry relative="1" as="geometry" />
        </mxCell>
        <mxCell id="1Vjf7NnYEk90J9PH0Oi4-20" value="渠道登陆" style="rounded=0;whiteSpace=wrap;html=1;" vertex="1" parent="WIyWlLk6GJQsqaUBKTNV-1">
          <mxGeometry x="370" y="330" width="150" height="60" as="geometry" />
        </mxCell>
        <mxCell id="1Vjf7NnYEk90J9PH0Oi4-21" style="edgeStyle=orthogonalEdgeStyle;rounded=0;orthogonalLoop=1;jettySize=auto;html=1;" edge="1" parent="WIyWlLk6GJQsqaUBKTNV-1" source="1Vjf7NnYEk90J9PH0Oi4-22" target="1Vjf7NnYEk90J9PH0Oi4-25">
          <mxGeometry relative="1" as="geometry" />
        </mxCell>
        <mxCell id="1Vjf7NnYEk90J9PH0Oi4-22" value="渠道登录失败&lt;br&gt;总数:100" style="rounded=0;whiteSpace=wrap;html=1;" vertex="1" parent="WIyWlLk6GJQsqaUBKTNV-1">
          <mxGeometry x="475" y="430" width="150" height="60" as="geometry" />
        </mxCell>
        <mxCell id="1Vjf7NnYEk90J9PH0Oi4-23" style="edgeStyle=orthogonalEdgeStyle;rounded=0;orthogonalLoop=1;jettySize=auto;html=1;entryX=0.5;entryY=0;entryDx=0;entryDy=0;" edge="1" parent="WIyWlLk6GJQsqaUBKTNV-1" source="1Vjf7NnYEk90J9PH0Oi4-24" target="1Vjf7NnYEk90J9PH0Oi4-27">
          <mxGeometry relative="1" as="geometry" />
        </mxCell>
        <mxCell id="1Vjf7NnYEk90J9PH0Oi4-24" value="渠道登陆成功&lt;br&gt;总数:3883" style="rounded=0;whiteSpace=wrap;html=1;" vertex="1" parent="WIyWlLk6GJQsqaUBKTNV-1">
          <mxGeometry x="285" y="430" width="150" height="60" as="geometry" />
        </mxCell>
        <mxCell id="1Vjf7NnYEk90J9PH0Oi4-25" value="&lt;div style=&quot;text-align: left&quot;&gt;初始化失败率:2%&lt;/div&gt;" style="ellipse;whiteSpace=wrap;html=1;" vertex="1" parent="WIyWlLk6GJQsqaUBKTNV-1">
          <mxGeometry x="497.5" y="530" width="105" height="90" as="geometry" />
        </mxCell>
        <mxCell id="1Vjf7NnYEk90J9PH0Oi4-26" style="edgeStyle=orthogonalEdgeStyle;rounded=0;orthogonalLoop=1;jettySize=auto;html=1;" edge="1" parent="WIyWlLk6GJQsqaUBKTNV-1" source="1Vjf7NnYEk90J9PH0Oi4-27" target="1Vjf7NnYEk90J9PH0Oi4-31">
          <mxGeometry relative="1" as="geometry" />
        </mxCell>
        <mxCell id="1Vjf7NnYEk90J9PH0Oi4-27" value="聚合层开始登陆&lt;br&gt;总数:3901" style="rounded=0;whiteSpace=wrap;html=1;" vertex="1" parent="WIyWlLk6GJQsqaUBKTNV-1">
          <mxGeometry x="285" y="530" width="150" height="60" as="geometry" />
        </mxCell>
        <mxCell id="1Vjf7NnYEk90J9PH0Oi4-28" style="edgeStyle=orthogonalEdgeStyle;rounded=0;orthogonalLoop=1;jettySize=auto;html=1;entryX=0.5;entryY=0;entryDx=0;entryDy=0;" edge="1" parent="WIyWlLk6GJQsqaUBKTNV-1" source="1Vjf7NnYEk90J9PH0Oi4-31" target="1Vjf7NnYEk90J9PH0Oi4-33">
          <mxGeometry relative="1" as="geometry" />
        </mxCell>
        <mxCell id="1Vjf7NnYEk90J9PH0Oi4-58" style="edgeStyle=orthogonalEdgeStyle;rounded=0;orthogonalLoop=1;jettySize=auto;html=1;" edge="1" parent="WIyWlLk6GJQsqaUBKTNV-1" source="1Vjf7NnYEk90J9PH0Oi4-31" target="1Vjf7NnYEk90J9PH0Oi4-34">
          <mxGeometry relative="1" as="geometry" />
        </mxCell>
        <mxCell id="1Vjf7NnYEk90J9PH0Oi4-31" value="聚合层登陆发起网络请求&lt;br&gt;总数:3885" style="rounded=0;whiteSpace=wrap;html=1;" vertex="1" parent="WIyWlLk6GJQsqaUBKTNV-1">
          <mxGeometry x="285" y="620" width="150" height="50" as="geometry" />
        </mxCell>
        <mxCell id="1Vjf7NnYEk90J9PH0Oi4-32" style="edgeStyle=orthogonalEdgeStyle;rounded=0;orthogonalLoop=1;jettySize=auto;html=1;entryX=0.5;entryY=0;entryDx=0;entryDy=0;" edge="1" parent="WIyWlLk6GJQsqaUBKTNV-1" source="1Vjf7NnYEk90J9PH0Oi4-33" target="1Vjf7NnYEk90J9PH0Oi4-38">
          <mxGeometry relative="1" as="geometry" />
        </mxCell>
        <mxCell id="1Vjf7NnYEk90J9PH0Oi4-33" value="聚合层登陆成功&lt;br&gt;总数:3874" style="rounded=0;whiteSpace=wrap;html=1;" vertex="1" parent="WIyWlLk6GJQsqaUBKTNV-1">
          <mxGeometry x="285" y="710" width="150" height="60" as="geometry" />
        </mxCell>
        <mxCell id="1Vjf7NnYEk90J9PH0Oi4-34" value="聚合层登陆失败&lt;br&gt;总数:17" style="rounded=0;whiteSpace=wrap;html=1;" vertex="1" parent="WIyWlLk6GJQsqaUBKTNV-1">
          <mxGeometry x="475" y="710" width="150" height="60" as="geometry" />
        </mxCell>
        <mxCell id="1Vjf7NnYEk90J9PH0Oi4-36" style="edgeStyle=orthogonalEdgeStyle;rounded=0;orthogonalLoop=1;jettySize=auto;html=1;entryX=0.5;entryY=0;entryDx=0;entryDy=0;" edge="1" parent="WIyWlLk6GJQsqaUBKTNV-1" source="1Vjf7NnYEk90J9PH0Oi4-38" target="1Vjf7NnYEk90J9PH0Oi4-39">
          <mxGeometry relative="1" as="geometry" />
        </mxCell>
        <mxCell id="1Vjf7NnYEk90J9PH0Oi4-37" style="edgeStyle=orthogonalEdgeStyle;rounded=0;orthogonalLoop=1;jettySize=auto;html=1;" edge="1" parent="WIyWlLk6GJQsqaUBKTNV-1" source="1Vjf7NnYEk90J9PH0Oi4-38" target="1Vjf7NnYEk90J9PH0Oi4-40">
          <mxGeometry relative="1" as="geometry" />
        </mxCell>
        <mxCell id="1Vjf7NnYEk90J9PH0Oi4-38" value="客户端向游戏发起登陆请求&lt;br&gt;总数:3872" style="rounded=0;whiteSpace=wrap;html=1;" vertex="1" parent="WIyWlLk6GJQsqaUBKTNV-1">
          <mxGeometry x="285" y="800" width="150" height="60" as="geometry" />
        </mxCell>
        <mxCell id="1Vjf7NnYEk90J9PH0Oi4-39" value="成功进入游戏&lt;br&gt;总数:3821" style="rounded=0;whiteSpace=wrap;html=1;" vertex="1" parent="WIyWlLk6GJQsqaUBKTNV-1">
          <mxGeometry x="285" y="890" width="150" height="60" as="geometry" />
        </mxCell>
        <mxCell id="1Vjf7NnYEk90J9PH0Oi4-40" value="客户端上报进入游戏失败&lt;br&gt;总数:5" style="rounded=0;whiteSpace=wrap;html=1;" vertex="1" parent="WIyWlLk6GJQsqaUBKTNV-1">
          <mxGeometry x="475" y="890" width="150" height="60" as="geometry" />
        </mxCell>
        <mxCell id="1Vjf7NnYEk90J9PH0Oi4-41" value="" style="shape=curlyBracket;whiteSpace=wrap;html=1;rounded=1;" vertex="1" parent="WIyWlLk6GJQsqaUBKTNV-1">
          <mxGeometry x="255" y="820" width="20" height="120" as="geometry" />
        </mxCell>
        <mxCell id="1Vjf7NnYEk90J9PH0Oi4-42" value="游戏客户端进入游戏,流失次数:46&lt;br&gt;流失率:1%" style="ellipse;whiteSpace=wrap;html=1;" vertex="1" parent="WIyWlLk6GJQsqaUBKTNV-1">
          <mxGeometry x="135" y="840" width="120" height="80" as="geometry" />
        </mxCell>
        <mxCell id="1Vjf7NnYEk90J9PH0Oi4-47" value="总数大于4177,是因为初始化失败之后,又重新进行了初始化操作" style="ellipse;whiteSpace=wrap;html=1;" vertex="1" parent="WIyWlLk6GJQsqaUBKTNV-1">
          <mxGeometry x="70" y="300" width="120" height="80" as="geometry" />
        </mxCell>
        <mxCell id="1Vjf7NnYEk90J9PH0Oi4-53" style="edgeStyle=orthogonalEdgeStyle;rounded=0;orthogonalLoop=1;jettySize=auto;html=1;" edge="1" parent="WIyWlLk6GJQsqaUBKTNV-1" source="1Vjf7NnYEk90J9PH0Oi4-51" target="1Vjf7NnYEk90J9PH0Oi4-47">
          <mxGeometry relative="1" as="geometry" />
        </mxCell>
        <mxCell id="1Vjf7NnYEk90J9PH0Oi4-51" value="" style="shape=partialRectangle;whiteSpace=wrap;html=1;bottom=1;right=1;left=1;top=0;fillColor=none;routingCenterX=-0.5;" vertex="1" parent="WIyWlLk6GJQsqaUBKTNV-1">
          <mxGeometry x="280" y="270" width="120" height="30" as="geometry" />
        </mxCell>
        <mxCell id="1Vjf7NnYEk90J9PH0Oi4-56" value="设备角度,初始化失败率为:6%" style="ellipse;whiteSpace=wrap;html=1;" vertex="1" parent="WIyWlLk6GJQsqaUBKTNV-1">
          <mxGeometry x="86.87" y="90" width="120" height="80" as="geometry" />
        </mxCell>
        <mxCell id="1Vjf7NnYEk90J9PH0Oi4-59" value="" style="shape=curlyBracket;whiteSpace=wrap;html=1;rounded=1;rotation=-180;" vertex="1" parent="WIyWlLk6GJQsqaUBKTNV-1">
          <mxGeometry x="630" y="239.99" width="20" height="229.99" as="geometry" />
        </mxCell>
        <mxCell id="1Vjf7NnYEk90J9PH0Oi4-60" value="渠道SDK登陆,实际流失:286,流失率:6%" style="ellipse;whiteSpace=wrap;html=1;" vertex="1" parent="WIyWlLk6GJQsqaUBKTNV-1">
          <mxGeometry x="650" y="310" width="120" height="80" as="geometry" />
        </mxCell>
        <mxCell id="1Vjf7NnYEk90J9PH0Oi4-61" value="" style="shape=curlyBracket;whiteSpace=wrap;html=1;rounded=1;rotation=-180;" vertex="1" parent="WIyWlLk6GJQsqaUBKTNV-1">
          <mxGeometry x="540" y="50" width="20" height="190" as="geometry" />
        </mxCell>
        <mxCell id="1Vjf7NnYEk90J9PH0Oi4-62" value="聚合层初始化&lt;br&gt;实际流失:45,流失率：1%" style="ellipse;whiteSpace=wrap;html=1;" vertex="1" parent="WIyWlLk6GJQsqaUBKTNV-1">
          <mxGeometry x="570" y="105" width="120" height="80" as="geometry" />
        </mxCell>
        <mxCell id="1Vjf7NnYEk90J9PH0Oi4-63" value="" style="shape=curlyBracket;whiteSpace=wrap;html=1;rounded=1;" vertex="1" parent="WIyWlLk6GJQsqaUBKTNV-1">
          <mxGeometry x="220" y="560" width="20" height="180" as="geometry" />
        </mxCell>
        <mxCell id="1Vjf7NnYEk90J9PH0Oi4-64" value="聚合层登陆&lt;br&gt;实际流失数:27&lt;br&gt;实际流失率:0.6%" style="ellipse;whiteSpace=wrap;html=1;" vertex="1" parent="WIyWlLk6GJQsqaUBKTNV-1">
          <mxGeometry x="50" y="610" width="170" height="80" as="geometry" />
        </mxCell>
      </root>
    </mxGraphModel>
  </diagram>
</mxfile>
